name C:/MyDriveSym/Projects/mobilecap/Data\Session20210823_0002\mocap\ForceDataProcessed\walking1_forces.mot
datacolumns 19
datarows 14
range 0.71450000 0.72100000
endheader 
time	R_ground_force_vx	R_ground_force_vy	R_ground_force_vz	R_ground_force_px	R_ground_force_py	R_ground_force_pz	R_ground_torque_x	R_ground_torque_y	R_ground_torque_z	L_ground_force_vx	L_ground_force_vy	L_ground_force_vz	L_ground_force_px	L_ground_force_py	L_ground_force_pz	L_ground_torque_x	L_ground_torque_y	L_ground_torque_z	
          0.71450000	         28.96873000	         96.40856800	          1.89217200	          0.40893600	          0.00600000	         -0.14428500	          0.00000000	         -0.14763400	          0.00000000	        -86.39133400	        559.20814000	         28.61982800	          0.91336700	          0.00600000	         -0.28579600	          0.00000000	         -0.00517600	          0.00000000	
          0.71500000	         28.60399600	         94.92540400	          1.90531000	          0.40924900	          0.00600000	         -0.14426500	          0.00000000	         -0.14551100	          0.00000000	        -86.54808200	        560.43574800	         28.79125100	          0.91358000	          0.00600000	         -0.28582400	          0.00000000	         -0.00733200	          0.00000000	
          0.71550000	         28.24108600	         93.45346300	          1.91793300	          0.40956600	          0.00600000	         -0.14424400	          0.00000000	         -0.14341200	          0.00000000	        -86.70198900	        561.65613400	         28.96193100	          0.91379200	          0.00600000	         -0.28585300	          0.00000000	         -0.00947600	          0.00000000	
          0.71600000	         27.88002400	         91.99276600	          1.93005000	          0.40988900	          0.00600000	         -0.14422200	          0.00000000	         -0.14133700	          0.00000000	        -86.85305300	        562.86924800	         29.13185600	          0.91400500	          0.00600000	         -0.28588100	          0.00000000	         -0.01160700	          0.00000000	
          0.71650000	         27.52083500	         90.54333100	          1.94166900	          0.41021600	          0.00600000	         -0.14420000	          0.00000000	         -0.13928600	          0.00000000	        -87.00127100	        564.07504500	         29.30101300	          0.91421600	          0.00600000	         -0.28590900	          0.00000000	         -0.01372700	          0.00000000	
          0.71700000	         27.16354200	         89.10517500	          1.95279800	          0.41054900	          0.00600000	         -0.14417700	          0.00000000	         -0.13726000	          0.00000000	        -87.14664300	        565.27347500	         29.46938800	          0.91442700	          0.00600000	         -0.28593700	          0.00000000	         -0.01583300	          0.00000000	
          0.71750000	         26.80816900	         87.67831200	          1.96344500	          0.41088700	          0.00600000	         -0.14415300	          0.00000000	         -0.13525700	          0.00000000	        -87.28916600	        566.46449400	         29.63696900	          0.91463800	          0.00600000	         -0.28596500	          0.00000000	         -0.01792500	          0.00000000	
          0.71800000	         26.45473800	         86.26275900	          1.97361800	          0.41123100	          0.00600000	         -0.14412900	          0.00000000	         -0.13328000	          0.00000000	        -87.42883900	        567.64805300	         29.80374300	          0.91484800	          0.00600000	         -0.28599300	          0.00000000	         -0.02000300	          0.00000000	
          0.71850000	         26.10327000	         84.85852500	          1.98332400	          0.41158100	          0.00600000	         -0.14410400	          0.00000000	         -0.13132700	          0.00000000	        -87.56566100	        568.82410700	         29.96969700	          0.91505800	          0.00600000	         -0.28602100	          0.00000000	         -0.02206700	          0.00000000	
          0.71900000	         25.75378800	         83.46562400	          1.99257100	          0.41193600	          0.00600000	         -0.14407800	          0.00000000	         -0.12940000	          0.00000000	        -87.69963100	        569.99261000	         30.13482100	          0.91526700	          0.00600000	         -0.28604900	          0.00000000	         -0.02411700	          0.00000000	
          0.71950000	         25.40631300	         82.08406300	          2.00136800	          0.41229800	          0.00600000	         -0.14405100	          0.00000000	         -0.12749800	          0.00000000	        -87.83074900	        571.15351600	         30.29910000	          0.91547500	          0.00600000	         -0.28607700	          0.00000000	         -0.02615000	          0.00000000	
          0.72000000	         25.06086400	         80.71385200	          2.00972100	          0.41266600	          0.00600000	         -0.14402400	          0.00000000	         -0.12562200	          0.00000000	        -87.95901600	        572.30677900	         30.46252400	          0.91568300	          0.00600000	         -0.28610500	          0.00000000	         -0.02816800	          0.00000000	
          0.72050000	         24.71746100	         79.35499700	          2.01763700	          0.41304100	          0.00600000	         -0.14399600	          0.00000000	         -0.12377100	          0.00000000	        -88.08443100	        573.45235400	         30.62508000	          0.91589100	          0.00600000	         -0.28613300	          0.00000000	         -0.03017000	          0.00000000	
          0.72100000	         24.37612200	         78.00750300	          2.02512500	          0.41342300	          0.00600000	         -0.14396700	          0.00000000	         -0.12194700	          0.00000000	        -88.20699400	        574.59019800	         30.78675700	          0.91609800	          0.00600000	         -0.28616000	          0.00000000	         -0.03215500	          0.00000000	
